<svg xmlns="http://www.w3.org/2000/svg" viewBox="0 0 800 400" width="800" height="400">
  <defs>
    <linearGradient id="bg" x1="0%" y1="0%" x2="100%" y2="100%">
      <stop offset="0%" style="stop-color:#0a1628"/>
      <stop offset="60%" style="stop-color:#1a2d54"/>
      <stop offset="100%" style="stop-color:#0f1e3a"/>
    </linearGradient>
    <linearGradient id="accentGrad" x1="0%" y1="0%" x2="100%" y2="0%">
      <stop offset="0%" style="stop-color:#2563eb"/>
      <stop offset="100%" style="stop-color:#3b82f6"/>
    </linearGradient>
  </defs>
  <rect width="800" height="400" fill="url(#bg)"/>
  <line x1="0" y1="80" x2="800" y2="80" stroke="rgba(255,255,255,0.04)" stroke-width="1"/>
  <line x1="0" y1="200" x2="800" y2="200" stroke="rgba(255,255,255,0.04)" stroke-width="1"/>
  <line x1="0" y1="320" x2="800" y2="320" stroke="rgba(255,255,255,0.04)" stroke-width="1"/>
  <line x1="200" y1="0" x2="200" y2="400" stroke="rgba(255,255,255,0.04)" stroke-width="1"/>
  <line x1="400" y1="0" x2="400" y2="400" stroke="rgba(255,255,255,0.04)" stroke-width="1"/>
  <line x1="600" y1="0" x2="600" y2="400" stroke="rgba(255,255,255,0.04)" stroke-width="1"/>
  <rect x="500" y="120" width="100" height="220" rx="3" fill="rgba(37,99,235,0.2)" stroke="rgba(37,99,235,0.5)" stroke-width="1.5"/>
  <polygon points="550,80 470,120 630,120" fill="#2563eb" opacity="0.7"/>
  <rect x="520" y="145" width="20" height="20" rx="2" fill="rgba(212,168,67,0.5)"/>
  <rect x="560" y="145" width="20" height="20" rx="2" fill="rgba(212,168,67,0.5)"/>
  <rect x="520" y="185" width="20" height="20" rx="2" fill="rgba(212,168,67,0.3)"/>
  <rect x="560" y="185" width="20" height="20" rx="2" fill="rgba(212,168,67,0.5)"/>
  <rect x="520" y="225" width="20" height="20" rx="2" fill="rgba(212,168,67,0.5)"/>
  <rect x="560" y="225" width="20" height="20" rx="2" fill="rgba(212,168,67,0.3)"/>
  <rect x="535" y="295" width="30" height="45" rx="2" fill="rgba(37,99,235,0.6)"/>
  <rect x="410" y="165" width="80" height="175" rx="3" fill="rgba(37,99,235,0.12)" stroke="rgba(37,99,235,0.35)" stroke-width="1.5"/>
  <polygon points="450,135 395,165 505,165" fill="#2563eb" opacity="0.4"/>
  <rect x="425" y="185" width="15" height="15" rx="1" fill="rgba(212,168,67,0.3)"/>
  <rect x="455" y="185" width="15" height="15" rx="1" fill="rgba(212,168,67,0.3)"/>
  <rect x="610" y="165" width="80" height="175" rx="3" fill="rgba(37,99,235,0.12)" stroke="rgba(37,99,235,0.35)" stroke-width="1.5"/>
  <polygon points="650,135 595,165 705,165" fill="#2563eb" opacity="0.4"/>
  <rect x="625" y="185" width="15" height="15" rx="1" fill="rgba(212,168,67,0.3)"/>
  <rect x="655" y="185" width="15" height="15" rx="1" fill="rgba(212,168,67,0.3)"/>
  <line x1="380" y1="340" x2="730" y2="340" stroke="rgba(37,99,235,0.4)" stroke-width="2"/>
  <circle cx="395" cy="325" r="18" fill="rgba(16,185,129,0.25)"/>
  <rect x="392" y="330" width="6" height="12" fill="rgba(16,185,129,0.3)"/>
  <circle cx="715" cy="325" r="18" fill="rgba(16,185,129,0.25)"/>
  <rect x="712" y="330" width="6" height="12" fill="rgba(16,185,129,0.3)"/>
  <rect x="60" y="60" width="60" height="4" rx="2" fill="#d4a843"/>
  <text x="60" y="52" font-family="Arial,sans-serif" font-size="11" font-weight="600" fill="#d4a843" letter-spacing="3">GESTIÓN HOA · FLORIDA</text>
  <text x="60" y="120" font-family="Georgia,serif" font-size="42" font-weight="700" fill="#ffffff" letter-spacing="-0.5">Reglas de HOA</text>
  <text x="60" y="165" font-family="Georgia,serif" font-size="42" font-weight="700" fill="#3b82f6">Florida 2026</text>
  <text x="60" y="215" font-family="Arial,sans-serif" font-size="15" fill="rgba(255,255,255,0.55)" letter-spacing="0.2">FS 718 · FS 720 · Actualizaciones SB 4D</text>
  <rect x="60" y="250" width="130" height="56" rx="8" fill="rgba(37,99,235,0.15)" stroke="rgba(37,99,235,0.3)" stroke-width="1"/>
  <text x="125" y="272" font-family="Arial,sans-serif" font-size="22" font-weight="800" fill="#ffffff" text-anchor="middle">48,000+</text>
  <text x="125" y="290" font-family="Arial,sans-serif" font-size="10" fill="rgba(255,255,255,0.5)" text-anchor="middle">Comunidades HOA en FL</text>
  <rect x="205" y="250" width="130" height="56" rx="8" fill="rgba(212,168,67,0.12)" stroke="rgba(212,168,67,0.3)" stroke-width="1"/>
  <text x="270" y="272" font-family="Arial,sans-serif" font-size="22" font-weight="800" fill="#d4a843" text-anchor="middle">$1,000</text>
  <text x="270" y="290" font-family="Arial,sans-serif" font-size="10" fill="rgba(255,255,255,0.5)" text-anchor="middle">Multa Máx. por Violación</text>
  <rect x="60" y="330" width="200" height="36" rx="18" fill="#2563eb"/>
  <text x="160" y="353" font-family="Arial,sans-serif" font-size="13" font-weight="700" fill="#ffffff" text-anchor="middle">Actualizaciones de Ley 2026</text>
</svg>
