<svg xmlns="http://www.w3.org/2000/svg" viewBox="0 0 800 400" width="800" height="400">
  <defs>
    <linearGradient id="bg" x1="0%" y1="0%" x2="100%" y2="100%">
      <stop offset="0%" style="stop-color:#0a1628"/>
      <stop offset="100%" style="stop-color:#111e36"/>
    </linearGradient>
  </defs>
  <rect width="800" height="400" fill="url(#bg)"/>
  <circle cx="650" cy="200" r="160" fill="rgba(37,99,235,0.06)"/>
  <circle cx="750" cy="380" r="90" fill="rgba(212,168,67,0.05)"/>
  <rect x="570" y="80" width="6" height="220" rx="3" fill="rgba(37,99,235,0.6)"/>
  <rect x="500" y="80" width="146" height="6" rx="3" fill="rgba(37,99,235,0.7)"/>
  <circle cx="573" cy="77" r="8" fill="#2563eb"/>
  <circle cx="573" cy="77" r="4" fill="#d4a843"/>
  <line x1="573" y1="83" x2="515" y2="140" stroke="rgba(255,255,255,0.3)" stroke-width="1.5"/>
  <ellipse cx="515" cy="145" rx="42" ry="10" fill="rgba(16,185,129,0.25)" stroke="rgba(16,185,129,0.5)" stroke-width="1.5"/>
  <text x="515" y="138" font-family="Arial,sans-serif" font-size="9" fill="rgba(16,185,129,0.9)" text-anchor="middle">PROPIETARIO</text>
  <text x="515" y="149" font-family="Arial,sans-serif" font-size="7" fill="rgba(255,255,255,0.4)" text-anchor="middle">DERECHOS</text>
  <line x1="573" y1="83" x2="630" y2="175" stroke="rgba(255,255,255,0.3)" stroke-width="1.5"/>
  <ellipse cx="630" cy="180" rx="42" ry="10" fill="rgba(37,99,235,0.25)" stroke="rgba(37,99,235,0.5)" stroke-width="1.5"/>
  <text x="630" y="173" font-family="Arial,sans-serif" font-size="9" fill="rgba(59,130,246,0.9)" text-anchor="middle">INQUILINO</text>
  <text x="630" y="184" font-family="Arial,sans-serif" font-size="7" fill="rgba(255,255,255,0.4)" text-anchor="middle">DEBERES</text>
  <rect x="545" y="295" width="56" height="8" rx="4" fill="rgba(37,99,235,0.5)"/>
  <rect x="525" y="303" width="96" height="12" rx="6" fill="rgba(37,99,235,0.4)"/>
  <rect x="460" y="190" width="65" height="80" rx="4" fill="rgba(255,255,255,0.04)" stroke="rgba(255,255,255,0.1)" stroke-width="1"/>
  <line x1="470" y1="210" x2="515" y2="210" stroke="rgba(255,255,255,0.15)" stroke-width="1"/>
  <line x1="470" y1="220" x2="515" y2="220" stroke="rgba(255,255,255,0.15)" stroke-width="1"/>
  <line x1="470" y1="230" x2="510" y2="230" stroke="rgba(255,255,255,0.1)" stroke-width="1"/>
  <line x1="470" y1="240" x2="515" y2="240" stroke="rgba(255,255,255,0.1)" stroke-width="1"/>
  <line x1="470" y1="250" x2="505" y2="250" stroke="rgba(255,255,255,0.15)" stroke-width="1"/>
  <rect x="60" y="60" width="60" height="4" rx="2" fill="#d4a843"/>
  <text x="60" y="52" font-family="Arial,sans-serif" font-size="11" font-weight="600" fill="#d4a843" letter-spacing="3">GUÍA LEGAL · FLORIDA</text>
  <text x="60" y="118" font-family="Georgia,serif" font-size="38" font-weight="700" fill="#ffffff">Leyes de Arrendamiento</text>
  <text x="60" y="162" font-family="Georgia,serif" font-size="38" font-weight="700" fill="#3b82f6">en Florida</text>
  <text x="60" y="200" font-family="Georgia,serif" font-size="38" font-weight="700" fill="#ffffff">2026</text>
  <text x="60" y="235" font-family="Arial,sans-serif" font-size="13" fill="rgba(255,255,255,0.5)">Cap. 83 FS · Depósitos de Garantía · Desalojos</text>
  <rect x="60" y="265" width="115" height="52" rx="8" fill="rgba(37,99,235,0.15)" stroke="rgba(37,99,235,0.3)" stroke-width="1"/>
  <text x="117" y="287" font-family="Arial,sans-serif" font-size="19" font-weight="800" fill="#ffffff" text-anchor="middle">30 Días</text>
  <text x="117" y="302" font-family="Arial,sans-serif" font-size="9" fill="rgba(255,255,255,0.45)" text-anchor="middle">Plazo devolución depósito</text>
  <rect x="188" y="265" width="115" height="52" rx="8" fill="rgba(212,168,67,0.1)" stroke="rgba(212,168,67,0.3)" stroke-width="1"/>
  <text x="245" y="287" font-family="Arial,sans-serif" font-size="19" font-weight="800" fill="#d4a843" text-anchor="middle">12 Horas</text>
  <text x="245" y="302" font-family="Arial,sans-serif" font-size="9" fill="rgba(255,255,255,0.45)" text-anchor="middle">Aviso de entrada requerido</text>
  <rect x="60" y="335" width="210" height="36" rx="18" fill="#2563eb"/>
  <text x="165" y="358" font-family="Arial,sans-serif" font-size="13" font-weight="700" fill="#ffffff" text-anchor="middle">Lista de Verificación</text>
</svg>
