<svg xmlns="http://www.w3.org/2000/svg" viewBox="0 0 800 400" width="800" height="400">
  <defs>
    <linearGradient id="bg" x1="0%" y1="0%" x2="100%" y2="100%">
      <stop offset="0%" style="stop-color:#0a1628"/>
      <stop offset="50%" style="stop-color:#0d1f3c"/>
      <stop offset="100%" style="stop-color:#091525"/>
    </linearGradient>
    <linearGradient id="sky" x1="0%" y1="0%" x2="0%" y2="100%">
      <stop offset="0%" style="stop-color:rgba(37,99,235,0.12)"/>
      <stop offset="100%" style="stop-color:rgba(37,99,235,0)"/>
    </linearGradient>
    <linearGradient id="water" x1="0%" y1="0%" x2="0%" y2="100%">
      <stop offset="0%" style="stop-color:rgba(37,99,235,0.25)"/>
      <stop offset="100%" style="stop-color:rgba(37,99,235,0.05)"/>
    </linearGradient>
  </defs>
  <rect width="800" height="400" fill="url(#bg)"/>
  <rect x="350" y="0" width="450" height="280" fill="url(#sky)"/>
  <rect x="420" y="220" width="30" height="80" rx="2" fill="rgba(37,99,235,0.12)"/>
  <rect x="460" y="200" width="25" height="100" rx="2" fill="rgba(37,99,235,0.15)"/>
  <rect x="495" y="215" width="20" height="85" rx="2" fill="rgba(37,99,235,0.1)"/>
  <rect x="530" y="140" width="45" height="160" rx="2" fill="rgba(37,99,235,0.25)" stroke="rgba(37,99,235,0.3)" stroke-width="1"/>
  <line x1="552" y1="140" x2="552" y2="110" stroke="rgba(37,99,235,0.5)" stroke-width="2"/>
  <rect x="537" y="155" width="8" height="6" rx="1" fill="rgba(212,168,67,0.4)"/>
  <rect x="552" y="155" width="8" height="6" rx="1" fill="rgba(212,168,67,0.6)"/>
  <rect x="537" y="170" width="8" height="6" rx="1" fill="rgba(212,168,67,0.3)"/>
  <rect x="552" y="170" width="8" height="6" rx="1" fill="rgba(212,168,67,0.4)"/>
  <rect x="537" y="185" width="8" height="6" rx="1" fill="rgba(212,168,67,0.5)"/>
  <rect x="552" y="185" width="8" height="6" rx="1" fill="rgba(212,168,67,0.3)"/>
  <rect x="537" y="200" width="8" height="6" rx="1" fill="rgba(212,168,67,0.4)"/>
  <rect x="552" y="200" width="8" height="6" rx="1" fill="rgba(212,168,67,0.6)"/>
  <rect x="537" y="215" width="8" height="6" rx="1" fill="rgba(212,168,67,0.3)"/>
  <rect x="552" y="215" width="8" height="6" rx="1" fill="rgba(212,168,67,0.4)"/>
  <rect x="585" y="155" width="55" height="145" rx="2" fill="rgba(37,99,235,0.22)" stroke="rgba(37,99,235,0.3)" stroke-width="1"/>
  <rect x="592" y="168" width="10" height="8" rx="1" fill="rgba(212,168,67,0.5)"/>
  <rect x="609" y="168" width="10" height="8" rx="1" fill="rgba(212,168,67,0.3)"/>
  <rect x="622" y="168" width="10" height="8" rx="1" fill="rgba(212,168,67,0.5)"/>
  <rect x="592" y="185" width="10" height="8" rx="1" fill="rgba(212,168,67,0.4)"/>
  <rect x="609" y="185" width="10" height="8" rx="1" fill="rgba(212,168,67,0.6)"/>
  <rect x="622" y="185" width="10" height="8" rx="1" fill="rgba(212,168,67,0.3)"/>
  <rect x="592" y="202" width="10" height="8" rx="1" fill="rgba(212,168,67,0.5)"/>
  <rect x="609" y="202" width="10" height="8" rx="1" fill="rgba(212,168,67,0.3)"/>
  <rect x="622" y="202" width="10" height="8" rx="1" fill="rgba(212,168,67,0.5)"/>
  <rect x="592" y="219" width="10" height="8" rx="1" fill="rgba(212,168,67,0.3)"/>
  <rect x="609" y="219" width="10" height="8" rx="1" fill="rgba(212,168,67,0.5)"/>
  <rect x="622" y="219" width="10" height="8" rx="1" fill="rgba(212,168,67,0.4)"/>
  <rect x="650" y="170" width="40" height="130" rx="2" fill="rgba(37,99,235,0.18)" stroke="rgba(37,99,235,0.25)" stroke-width="1"/>
  <rect x="658" y="182" width="8" height="7" rx="1" fill="rgba(212,168,67,0.4)"/>
  <rect x="673" y="182" width="8" height="7" rx="1" fill="rgba(212,168,67,0.3)"/>
  <rect x="658" y="197" width="8" height="7" rx="1" fill="rgba(212,168,67,0.5)"/>
  <rect x="673" y="197" width="8" height="7" rx="1" fill="rgba(212,168,67,0.4)"/>
  <rect x="658" y="212" width="8" height="7" rx="1" fill="rgba(212,168,67,0.3)"/>
  <rect x="673" y="212" width="8" height="7" rx="1" fill="rgba(212,168,67,0.5)"/>
  <rect x="698" y="190" width="50" height="110" rx="2" fill="rgba(37,99,235,0.2)" stroke="rgba(37,99,235,0.3)" stroke-width="1"/>
  <rect x="705" y="200" width="10" height="8" rx="1" fill="rgba(212,168,67,0.4)"/>
  <rect x="722" y="200" width="10" height="8" rx="1" fill="rgba(212,168,67,0.5)"/>
  <rect x="705" y="216" width="10" height="8" rx="1" fill="rgba(212,168,67,0.3)"/>
  <rect x="722" y="216" width="10" height="8" rx="1" fill="rgba(212,168,67,0.4)"/>
  <rect x="380" y="300" width="420" height="70" rx="4" fill="url(#water)" opacity="0.6"/>
  <line x1="400" y1="315" x2="780" y2="315" stroke="rgba(37,99,235,0.15)" stroke-width="1"/>
  <line x1="400" y1="328" x2="780" y2="328" stroke="rgba(37,99,235,0.1)" stroke-width="1"/>
  <line x1="400" y1="341" x2="780" y2="341" stroke="rgba(37,99,235,0.07)" stroke-width="1"/>
  <line x1="380" y1="300" x2="800" y2="300" stroke="rgba(37,99,235,0.4)" stroke-width="1.5"/>
  <circle cx="612" cy="312" r="3" fill="rgba(212,168,67,0.4)"/>
  <circle cx="580" cy="325" r="2" fill="rgba(212,168,67,0.25)"/>
  <circle cx="645" cy="319" r="2" fill="rgba(212,168,67,0.3)"/>
  <rect x="60" y="60" width="60" height="4" rx="2" fill="#d4a843"/>
  <text x="60" y="52" font-family="Arial,sans-serif" font-size="11" font-weight="600" fill="#d4a843" letter-spacing="3">GUÍA LOCAL · MIAMI</text>
  <text x="60" y="118" font-family="Georgia,serif" font-size="38" font-weight="700" fill="#ffffff">Administración de</text>
  <text x="60" y="162" font-family="Georgia,serif" font-size="38" font-weight="700" fill="#3b82f6">Propiedades</text>
  <text x="60" y="206" font-family="Georgia,serif" font-size="38" font-weight="700" fill="#ffffff">Miami 2026</text>
  <text x="60" y="240" font-family="Arial,sans-serif" font-size="13" fill="rgba(255,255,255,0.5)">Tarifas · Vecindarios · Reglas STR · SB 4D</text>
  <rect x="60" y="265" width="120" height="52" rx="8" fill="rgba(212,168,67,0.1)" stroke="rgba(212,168,67,0.3)" stroke-width="1"/>
  <text x="120" y="286" font-family="Arial,sans-serif" font-size="19" font-weight="800" fill="#d4a843" text-anchor="middle">$2,850</text>
  <text x="120" y="302" font-family="Arial,sans-serif" font-size="9" fill="rgba(255,255,255,0.45)" text-anchor="middle">Renta Prom. Miami/mes</text>
  <rect x="192" y="265" width="120" height="52" rx="8" fill="rgba(37,99,235,0.12)" stroke="rgba(37,99,235,0.3)" stroke-width="1"/>
  <text x="252" y="286" font-family="Arial,sans-serif" font-size="19" font-weight="800" fill="#3b82f6" text-anchor="middle">6.2%</text>
  <text x="252" y="302" font-family="Arial,sans-serif" font-size="9" fill="rgba(255,255,255,0.45)" text-anchor="middle">Cap Rate Prom. Miami</text>
  <rect x="60" y="338" width="190" height="36" rx="18" fill="#2563eb"/>
  <text x="155" y="361" font-family="Arial,sans-serif" font-size="13" font-weight="700" fill="#ffffff" text-anchor="middle">Guía Completa Miami</text>
</svg>
